<svg width="54" height="54" viewBox="0 0 54 54" fill="none" xmlns="http://www.w3.org/2000/svg">
<path d="M35.1391 26.8228C35.0758 26.0042 34.3713 25.3282 33.5684 25.3156L28.2549 25.2323C27.9463 25.2275 27.6334 24.9496 27.5855 24.6378L26.4148 17.0272C26.3723 16.7515 26.1209 15.6274 24.7485 15.6274L18.1409 15.9217C17.2704 15.9603 16.5628 16.3931 16.5628 17.6077C16.5628 17.6077 16.5349 34.5236 16.5011 35.1365L16.2699 39.3218C16.239 39.8808 16.026 40.7855 15.8049 41.2975L13.1303 47.4874C12.9538 47.8959 12.9567 48.3474 13.1384 48.7262C13.32 49.105 13.6672 49.384 14.0911 49.4917L14.9815 49.7176C15.114 49.7513 15.2527 49.7683 15.3936 49.7683C16.1124 49.7683 16.8 49.3417 17.1046 48.7069L19.6469 43.408C19.9277 42.8227 20.2772 41.8308 20.4261 41.1968L21.8607 35.0863L25.3323 40.5151C25.6185 40.9627 25.9212 41.8216 25.9799 42.3531L26.651 48.431C26.7465 49.2961 27.5171 50 28.3688 50L29.3842 49.9964C29.8199 49.9948 30.216 49.8171 30.4996 49.4957C30.7831 49.1743 30.9157 48.7533 30.8727 48.3101L30.1717 41.084C30.1071 40.4176 29.873 39.4056 29.6388 38.7802L26.5281 30.4719L26.5088 28.7205L33.7387 28.4468C34.1423 28.4316 34.5111 28.2548 34.7771 27.9493C35.0431 27.6438 35.1721 27.2488 35.1403 26.8366L35.1391 26.8228ZM28.3688 49.4881V49.4883V49.4881Z" fill="#B6C0C6"/>
<path d="M20.2532 14.0213C20.8095 14.0213 21.3595 13.9243 21.888 13.7329C23.1217 13.2865 24.1114 12.3755 24.6748 11.1677C25.0732 10.3137 25.2236 9.38373 25.1238 8.4663L26.7657 8.27688C27.3378 8.21087 27.9186 7.74423 28.1166 7.19141L28.6665 5.65567C28.7839 5.32759 28.753 4.99562 28.5815 4.74469C28.4144 4.50011 28.1328 4.35981 27.8089 4.35981C27.7714 4.35981 27.7325 4.36165 27.6927 4.36554L22.9452 4.82727C22.1625 4.30015 21.2318 4 20.2527 4C19.6967 4 19.1469 4.09691 18.6181 4.28817C17.3846 4.73487 16.3949 5.64595 15.8313 6.85371C15.2678 8.06146 15.198 9.42119 15.6349 10.6824C16.3265 12.6795 18.1825 14.0213 20.2532 14.0213Z" fill="#B6C0C6"/>
<path d="M40.9964 21.8622L40.524 14.9195C40.4679 14.095 39.7647 13.4243 38.9537 13.4243L29.8776 13.4405C29.4713 13.4412 29.0978 13.6061 28.8259 13.9047C28.554 14.2032 28.4197 14.5958 28.4481 15.0104L28.9204 21.9531C28.9766 22.7776 29.6797 23.4483 30.4881 23.4483L39.5669 23.4321C39.9732 23.4314 40.3467 23.2667 40.6186 22.9681C40.8904 22.6694 41.0246 22.2767 40.9964 21.8622Z" fill="#B6C0C6"/>
</svg>
