<svg width="54" height="54" viewBox="0 0 54 54" fill="none" xmlns="http://www.w3.org/2000/svg">
<path d="M37.5287 3H17.4683C15.5498 3 14 4.56642 14 6.49793V47.5066C14 49.4321 15.5498 51 17.4683 51H37.5287C39.4442 51 41 49.4336 41 47.5066V6.49793C40.9985 4.56642 39.4442 3 37.5287 3ZM39 44H16V8H39V44ZM32 6.02105H23V5H32.0015L32 6.02105ZM36.1293 5.5C36.1293 5.99386 35.7291 6.3938 35.2401 6.3938C34.7496 6.3938 34.3508 5.99235 34.3508 5.5C34.3508 5.00765 34.7496 4.6062 35.2401 4.6062C35.7306 4.60469 36.1293 5.00614 36.1293 5.5ZM31.7327 48H23.2628V46H31.7327V48Z" fill="#B6C0C6"/>
<path d="M23.9599 26.0084C23.0867 26.0084 22.3722 25.6937 21.8165 25.0642C21.2722 24.4227 21 23.5694 21 22.5042C21 21.439 21.2722 20.5917 21.8165 19.9623C22.3722 19.3208 23.0867 19 23.9599 19C24.8331 19 25.5419 19.3208 26.0863 19.9623C26.6306 20.5917 26.9028 21.439 26.9028 22.5042C26.9028 23.5694 26.6306 24.4227 26.0863 25.0642C25.5419 25.6937 24.8331 26.0084 23.9599 26.0084ZM31.0535 19.1453H33.0778L24.9465 31.8547H22.9222L31.0535 19.1453ZM23.9599 24.5196C24.3455 24.5196 24.646 24.3501 24.8615 24.0112C25.0883 23.6723 25.2017 23.1699 25.2017 22.5042C25.2017 21.8385 25.0883 21.3361 24.8615 20.9972C24.646 20.6583 24.3455 20.4888 23.9599 20.4888C23.5857 20.4888 23.2851 20.6643 23.0583 21.0154C22.8315 21.3543 22.7181 21.8506 22.7181 22.5042C22.7181 23.1578 22.8315 23.6601 23.0583 24.0112C23.2851 24.3501 23.5857 24.5196 23.9599 24.5196ZM32.0401 32C31.4731 32 30.9627 31.8608 30.5091 31.5824C30.0668 31.2919 29.7209 30.8804 29.4714 30.3478C29.222 29.8152 29.0972 29.1979 29.0972 28.4958C29.0972 27.7938 29.222 27.1764 29.4714 26.6439C29.7209 26.1113 30.0668 25.7058 30.5091 25.4274C30.9627 25.1369 31.4731 24.9916 32.0401 24.9916C32.9133 24.9916 33.6221 25.3124 34.1665 25.9539C34.7222 26.5833 35 27.4306 35 28.4958C35 29.561 34.7222 30.4143 34.1665 31.0559C33.6221 31.6853 32.9133 32 32.0401 32ZM32.0401 30.5112C32.4257 30.5112 32.7262 30.3417 32.9417 30.0028C33.1685 29.6518 33.2819 29.1494 33.2819 28.4958C33.2819 27.8422 33.1685 27.3459 32.9417 27.007C32.7262 26.656 32.4257 26.4804 32.0401 26.4804C31.6659 26.4804 31.3653 26.6499 31.1385 26.9888C30.9117 27.3277 30.7983 27.8301 30.7983 28.4958C30.7983 29.1615 30.9117 29.6639 31.1385 30.0028C31.3653 30.3417 31.6659 30.5112 32.0401 30.5112Z" fill="#B6C0C6"/>
</svg>
