<svg width="54" height="54" viewBox="0 0 54 54" fill="none" xmlns="http://www.w3.org/2000/svg">
<path d="M15.75 40.5C13.275 40.5 11.2725 42.525 11.2725 45C11.2725 47.475 13.275 49.5 15.75 49.5C18.225 49.5 20.25 47.475 20.25 45C20.25 42.525 18.225 40.5 15.75 40.5ZM2.25 4.5V9H6.75L14.85 26.0775L11.8125 31.59C11.4525 32.22 11.25 32.9625 11.25 33.75C11.25 36.225 13.275 38.25 15.75 38.25H42.75V33.75H16.695C16.38 33.75 16.1325 33.5025 16.1325 33.1875L16.2 32.9175L18.225 29.25H34.9875C36.675 29.25 38.16 28.3275 38.925 26.9325L46.98 12.33C47.16 12.015 47.25 11.6325 47.25 11.25C47.25 10.0125 46.2375 9 45 9H11.7225L9.6075 4.5H2.25ZM38.25 40.5C35.775 40.5 33.7725 42.525 33.7725 45C33.7725 47.475 35.775 49.5 38.25 49.5C40.725 49.5 42.75 47.475 42.75 45C42.75 42.525 40.725 40.5 38.25 40.5Z" fill="#B6C0C6"/>
<path d="M27.1846 19.7729H29.2466V21.4857H26.9784L26.6611 24H24.8688L25.186 21.4857H22.8544L22.5371 24H20.7606L21.0779 21.4857H19V19.7729H21.2841L21.6172 17.2271H19.5393V15.5143H21.8234L22.1406 13H23.9171L23.5999 15.5143H25.9315L26.2487 13H28.0252L27.708 15.5143H29.77L29.7859 17.2271H27.5018L27.1846 19.7729ZM25.3922 19.7729L25.7253 17.2271H23.3937L23.0606 19.7729H25.3922Z" fill="white"/>
<path d="M35 13V24H32.4304V15.0429H30.2098V13H35Z" fill="white"/>
</svg>
